<?xml version="1.0" standalone="no"?>
<!DOCTYPE svg PUBLIC "-//W3C//DTD SVG 20010904//EN" "http://www.w3.org/TR/2001/REC-SVG-20010904/DTD/svg10.dtd">

<svg version="1.0" xmlns="http://www.w3.org/2000/svg"
 width="512.000000pt" height="512.000000pt" viewBox="90 80 420 420"
 preserveAspectRatio="xMidYMid meet">

  <defs>
    <linearGradient id="goldGradient" x1="0%" y1="0%" x2="100%" y2="0%">
      <stop offset="0%" stop-color="#ffe07e"/>
      <stop offset="50%" stop-color="#fef5a4"/>
      <stop offset="100%" stop-color="#ffe07e"/>
    </linearGradient>

    <filter id="glow" x="-20%" y="-20%" width="140%" height="140%">
      <feGaussianBlur stdDeviation="30" result="blur"/>
      <feMerge>
        <feMergeNode in="blur"/>
        <feMergeNode in="SourceGraphic"/>
      </feMerge>
    </filter>
  </defs>

  <!-- <rect width="100%" height="100%" fill="#1a2a2f" /> -->

  <g transform="translate(0.000000,512.000000) scale(0.100000,-0.100000)" stroke="none">
    <path fill="url(#goldGradient)" filter="url(#glow)" fill-rule="evenodd" d="M2621 4178 c9 -7 35 -38 60 -68 24 -30 92 -112 151 -182 86 -101 108
    -133 108 -157 0 -37 -38 -66 -72 -57 -13 3 -65 55 -116 116 -52 60 -98 110
    -103 110 -6 0 -8 -112 -7 -277 l3 -278 95 -7 c136 -11 296 -40 434 -79 l118
    -33 32 35 c17 19 122 137 234 262 135 151 211 229 229 233 33 9 87 -19 102
    -53 14 -31 24 -109 50 -388 57 -602 51 -1141 -15 -1438 -54 -244 -217 -478
    -438 -627 -339 -228 -856 -313 -1341 -220 -478 93 -843 378 -964 755 -67 209
    -86 425 -78 902 3 186 10 394 16 463 23 265 54 516 66 547 17 39 66 67 105 58
    20 -4 85 -69 238 -238 115 -128 222 -246 239 -263 l29 -32 74 25 c104 33 293
    70 430 83 63 6 139 13 168 16 l52 5 0 275 c0 151 -4 274 -9 274 -5 0 -42 -39
    -82 -87 -107 -126 -125 -143 -152 -143 -30 0 -59 32 -59 64 0 17 47 81 152
    208 85 100 160 189 169 196 8 6 27 12 41 12 14 0 33 -6 41 -12z M1256 3698 c-5 -16 -31 -266 -52 -488 -21 -225 -30 -787 -15 -963 22
    -259 50 -377 128 -529 129 -252 406 -454 744 -542 322 -83 746 -72 1052 28
    370 121 621 360 716 681 70 239 88 717 45 1260 -21 268 -51 555 -59 563 -8 8
    -32 -18 -300 -318 -108 -121 -199 -220 -204 -220 -4 0 -34 9 -67 20 -191 66
    -387 100 -625 107 -272 8 -469 -16 -709 -88 -58 -17 -114 -33 -125 -36 -16 -3
    -69 50 -264 266 -135 149 -248 271 -253 271 -5 0 -10 -6 -12 -12z m2089 -1021
    c25 -7 60 -31 92 -62 41 -40 55 -62 68 -109 63 -216 -157 -407 -361 -312 -86
    40 -154 144 -154 236 0 51 31 131 67 170 82 91 163 113 288 77z m-1368 -17
    c159 -91 179 -304 40 -426 -101 -89 -252 -85 -347 8 -54 52 -80 109 -80 178 0
    113 46 194 139 242 44 23 66 28 125 28 60 0 79 -5 123 -30z m908 -680 c127 -6
    265 -14 309 -19 71 -8 82 -12 114 -44 30 -30 36 -44 40 -91 6 -71 -8 -104 -68
    -160 -56 -53 -222 -135 -330 -165 -184 -50 -449 -65 -640 -36 -204 30 -397
    108 -494 196 -65 60 -80 92 -74 165 4 47 10 61 40 90 31 32 43 37 113 45 195
    24 663 33 990 19z"/>
</g>
</svg>
